<?xml version="1.0" encoding="utf-8"?>
<!-- Generator: Adobe Illustrator 19.2.1, SVG Export Plug-In . SVG Version: 6.00 Build 0)  -->
<svg version="1.1" id="Layer_1" xmlns="http://www.w3.org/2000/svg" xmlns:xlink="http://www.w3.org/1999/xlink" x="0px" y="0px"
	 viewBox="0 0 612 792" style="enable-background:new 0 0 612 792;" xml:space="preserve">
<style type="text/css">
	.st0{fill:#FFFFFF;}
</style>
<rect width="612" height="792"/>
<g>
	<path class="st0" d="M385,378.3l-16.9-2.7c-0.3-1.8-1.2-5.7-1.6-8c-0.3-2.1-0.6-5.6-0.9-7.8l8.4-8.4l-9.2-3.2l-3.9,3.6
		c-2.5-4.7-1.7-16.1-1.6-18.7h-4.1c-0.1,1.2-0.4,11.8,0.3,15.1c1.2,5.5,5,7.7,6.7,11.3c1,2.1,2,4.6,2.6,8c0.5,2.8,0.3,5.8,0.1,7.6
		l-13.9-2.3l-3.3,1.2l-0.3,8.2l6.8,1.1c-1.2,2-3.7,4.8-6,6.8c-1.8,1.6-5,2.4-5.5,2.2c-0.4-0.1-4.1-4.3-5-5.6
		c-0.5-0.8-0.5-1.8-0.4-2.7c0.6-7.4,2-12.1,2.2-12.8c0,0-0.7-0.5-1-0.5c-0.5,0.9-2.4,4.3-3.7,5.7c-0.8,0.9-5.6,5.2-8.6,7.9
		c-1.4-0.6-1.5-1.4-1.1-2.6c0.5-1.2,1.6-3.3,2.7-5.1c1.8-3.1,4.5-7.1,4.7-7.5c-0.3-0.3-1.2-0.5-1.2-0.5c-0.9,0.7-3.5,4.1-5.1,6.6
		c-0.9,1.4-3.6,6.2-3.8,6.7c-0.9,0-1-1.4-0.8-2.5c0.3-2.5,2.9-11.6,3.2-12.4l-1.2-0.3c-0.9,2-3.5,10.7-4.3,13.8
		c-0.5-0.1-1.6-0.9-2-1.2c-0.4-0.4-0.4-0.8-0.3-1.5c0.1-0.8,1.4-10.6,2.3-12.2c0.8-1.6,4.3-4.8,7.5-8.4c3.2-3.5,6.1-7.3,6.9-8.2
		c0.4-0.6,0.4-1,0.4-1.6c0-2.8-1-13.3-1.2-14.1h-3.2c0.1,1.7,1.6,9,1.8,10.9c0.2,1.3-0.1,2.6-0.3,3.1c-0.6,2-2.9,5.8-5.5,8.4
		c-2.4,2.4-6.9,5.5-7.8,6.3s-2,2.4-2.4,3.7c-0.3,0.9-0.5,2.6-0.8,3.2c-2.3,0.1-9.6-1.1-10.5-1.1c-0.9,1-5.6,7.2-6.2,7.6
		c0.8,0.1,15.6,2.2,16.6,2.5c0,2.6,1.6,4.5,4.6,4.8c0.1,0.3,3.2,2.4,5,3.5c-3.8,3.5-13.4,12.6-13.4,12.6c0.7,0.2,10.5,2.2,10.5,2.2
		c0.9-0.7,12.5-11.6,13.5-12.6c1,1,6,5.1,7.1,5.8c0.5,0.3,1.2,1,1.8,1c1,0.1,3.9-1,4.6-1.4c0.1,0,0.1,0,0.1,0c0.5,1,1.4,2.4,1.7,2.7
		c0.5,0.3,0.9,0.5,1.6,0.3c1.8-0.7,4.8-3.3,7-4.8c2-1.4,6.6-4.6,8.4-6.4l12.2,2L385,378.3L385,378.3z M347.3,453.3
		c0-1.8,0-22.3,0-25c0-4.1-3.5-5.4-4.7-5.4c-1.2,0-4.6,0-4.9,0s-0.6-0.1-0.6-0.7c0-0.5,0-17.1,0-17.1h-0.5l-0.5,0.5V391
		c-0.5-0.5-1-0.8-1.2-1v16.8l-5.7,5v11.3c-1.4,0-3.3,0-3.5,0c-0.3,0-0.6-0.1-0.6-0.7c0-0.5,0-17.1,0-17.1h-0.4l-4.8,4.3v-7.3
		c-0.3-0.1-0.7-0.2-1.2-0.3v8.6l-1.3,1.2v45.5h9.4v-0.5c-0.5-0.1-1.6-2-1.8-3.5c0-8.2,0-22.8,0-23.2c0-0.5,0.3-0.6,0.6-0.6
		c0.3,0,1.2,0,1.6,0c0.1,0,0.3,0.1,0.4-0.4c0.2-0.5,0.9-2.4,1.5-3.9v32.1h9.6v-0.5c-0.5-0.1-1.5-2-1.7-3.5c0-8.2,0-22.8,0-23.2
		c0-0.5,0.3-0.6,0.6-0.6s1.2,0,1.5,0c0.3,0,0.5,0.3,0.5,0.6c0,0.5,0,21.6,0,27.2h9.7v-0.5C348.9,456.5,347.3,454.9,347.3,453.3
		L347.3,453.3z M385.9,422.9c-0.4,0-1.8,0-3.7,0v-37.4l-1.2,1.9v35.5c-0.1,0-0.3,0-0.4,0c-0.6,0.6-1.4,1.6-2,2
		c-0.3,0.3-0.6,0.4-0.6-0.1c0-0.4,0-2,0-2c-2.4,0-4.8,0-6.3,0v-35.1l-1.2-0.2v35.3c-0.3,0-0.5,0-0.5,0v34.2h9.7v-0.5
		c-1-0.7-1.7-2.2-1.7-3.6c0-0.3,0.1-8.8,0.1-20.4c0.6-0.7,1.2-1.2,1.7-1.7c0.5-0.4,0.8-0.3,0.8,0.2c0,0.6,0,7.9,0,8.9l6.9-7.3
		c0,0,0-6.4,0-8C387.6,423.8,387.1,422.9,385.9,422.9L385.9,422.9z M367.6,447.1c-0.6,1.8-1.8,3.2-4.5,3.2c-2.7,0-4.5,0-4.7,0
		c-0.3,0-0.9-0.3-0.9-0.8c0-0.4,0-2.6,0-2.6c1.2-1.2,8.8-9,9.2-9.6c0.4-0.6,1.1-1.6,1.1-3.2c0-1.5,0-8.3,0-8.9
		c0-1.7-1.1-2.3-2.6-2.3c-1.7,0-9,0-9.9,0c-0.7,0-1.3,0.1-1.8,0.1v-25.7c-0.5,0.3-0.9,0.5-1.2,0.7v25.3c-1.6,0.7-2.5,2.2-2.5,5
		c0,2.4,0,22.7,0,24.7c0,2,1.5,4.1,3.6,4.1c1.3,0,11.1,0,12,0c0.9,0,2.6-0.4,2.6-1.6c0-1.3,0-8.4,0-8.4L367.6,447.1L367.6,447.1z
		 M357.5,430.1c0-0.8,0.3-1,0.7-1c0.3,0,0.8,0,1,0c0.6,0,0.7,0.1,0.7,0.7c0,0.9,0,3.9,0,4.4s-0.1,1.4-0.6,2.2
		c-0.3,0.5-1.2,1.3-1.9,1.9C357.5,438.2,357.5,431.2,357.5,430.1L357.5,430.1z M264.4,427.9c0,0.6,0,23.7,0,24.3
		c0,2.9-1.7,4.9-5.6,4.9c-1.4,0-5,0-6.5,0c-3.8,0-5.6-2-5.6-4.9c0-0.7,0-23.8,0-24.3c0-2.9,1.8-5,5.6-5c1.5,0,5.1,0,6.5,0
		C262.7,422.9,264.4,424.9,264.4,427.9L264.4,427.9z M256.9,430.1c0-0.5-0.2-0.7-0.6-0.7c-0.1,0-1.3,0-1.4,0c-0.5,0-0.7,0.3-0.7,0.7
		c0,0.6,0,19.2,0,19.9c0,0.4,0.2,0.7,0.7,0.7c0.1,0,1.3,0,1.4,0c0.4,0,0.6-0.3,0.6-0.7C256.9,449.4,256.9,430.7,256.9,430.1
		L256.9,430.1z M262.2,405.8v0.3l-7.1,8c0,0-20.8,0-21.6,0c-1.2,0-1.7,0.8-1.7,1.8c0,1.3,0,31.8,0,32.4c0,0.5,0.1,0.9,0.7,0.9
		s2.6,0,2.9,0s0.9-0.1,0.9-0.7s0-21.3,0-22.2c0-0.9-1-2.9-2.2-2.9v-0.5c0,0,9.3,0,9.5,0c0.6,0,0.7,0.3,0.7,0.9c0,0.6,0,35.8,0,35.8
		h-0.4c-0.7-2.1-2-2.4-3.5-2.4c-1,0-8.7,0-10.1,0c-1.5,0-7.1-1.8-7.1-6.5c0-1.6,0-34.6,0-36.9c0-5.4,2.7-7.9,7.8-7.9
		C233.4,405.8,260.5,405.8,262.2,405.8L262.2,405.8z M306.6,440.9c-0.2,0.2-1.3,1.3-1.6,1.6c-0.3,0.3-0.5,0.6-0.5,1
		c0,0.5,0,6.2,0,6.6c0,0.4,0.2,0.6,0.5,0.6c0.3,0,1.2,0,1.6,0c0.3,0,0.6-0.1,0.6-0.6c0-0.4,0-8.7,0-9.1
		C307.2,440.6,306.9,440.5,306.6,440.9L306.6,440.9z M296.9,452.2c0-1.3,0-6.6,0-8.1c0-0.4,0.1-2.5,1-3.7c1-1.2,8.9-8.2,9.3-8.6
		c0-0.3,0-1.2,0-1.5c0-0.3-0.2-0.9-0.8-0.9s-3.5,0-3.9,0c-1.2,0-2.9,0.7-4,2.4H298c0.5-1.1,2.1-5.3,2.4-6c0.5-1.5,2.1-2.9,4.8-2.9
		c1.6,0,4.8,0,5.9,0c2.1,0,3.9,2.6,3.9,4.3c0,2.8,0,24.9,0,26.1c0,1.2,0.7,3,1,3.3v0.5c0,0-6.1,0-6.9,0c-0.5-0.2-1.7-2.9-1.8-3.3
		c-0.1-0.3-0.3-0.5-0.5-0.2c-0.2,0.3-1.3,3.1-1.9,3.5c0,0-3.1,0-3.7,0C298.6,457.1,296.9,454.7,296.9,452.2L296.9,452.2z
		 M274.4,412.4l9.3-8.2h0.3c0,0,0,44.8,0,46.5c0,2.3,0,4.8,1.8,6v0.5c-1.3,0-7.1,0-7.1,0c-0.3-0.3-1.5-2.1-1.8-3.1
		c-0.3-0.9-0.3-0.3-0.5-0.1c-0.2,0.3-1.4,2.4-1.6,2.7c-0.3,0.4-0.5,0.6-0.9,0.6c-0.3,0-2.1,0-2.4,0c-3.1,0-4.9-2.4-4.9-6.5
		c0-4.8,0-19.6,0-22.4c0-4.1,3.2-5.4,4.5-5.4c1.2,0,4.6,0,4.9,0s0.6-0.1,0.6-0.7c0-0.5,0-6.8,0-7.1c0-1.6-0.8-2.4-2.2-2.4
		L274.4,412.4L274.4,412.4z M276,429.4c-0.3,0-1.2,0-1.5,0c-0.3,0-0.5,0.3-0.5,0.6c0,0.5,0,19.6,0,20c0,0.4,0.2,0.6,0.5,0.6
		c0.3,0,1.2,0,1.5,0s0.6-0.1,0.6-0.6c0-0.4,0-19.6,0-20C276.6,429.5,276.3,429.4,276,429.4L276,429.4z M274.3,382.8
		c-0.4,0.6-1.5,1.7-2.2,2.2c0,0,0-6.4,0-7.5c0-0.4,0.2-0.7,0.6-0.7c0.3,0,1.4,0,1.6,0s0.5,0.2,0.5,0.7c0,0.9,0,3.1,0,3.6
		C274.9,381.6,274.7,382.2,274.3,382.8L274.3,382.8z M279.9,370.3c-1.7,0-8.8,0-9.8,0c-3.8,0-5.5,1.9-5.5,4.8c0,2.3,0,23,0,24.9
		c0,2,1.4,4.1,3.5,4.1c1.3,0,11,0,11.8,0c0.9,0,2.6-0.4,2.6-1.6c0-1.3,0-8.4,0-8.4h-0.3c-0.6,1.7-1.8,3.2-4.5,3.2
		c-2.7,0-4.4,0-4.6,0c-0.3,0-0.9-0.4-0.9-0.8c0-0.4,0-2.6,0-2.6c1.2-1.2,8.7-9,9.1-9.5c0.5-0.6,1.2-1.6,1.2-3.1c0-1.6,0-8.3,0-8.8
		C282.4,370.8,281.3,370.3,279.9,370.3L279.9,370.3z M297.2,420.2c0.5-0.5,6.9-6.6,6.9-6.6c0-0.1,0-2.4,0-3.3c0-2.6-1.2-4.1-3.5-4.5
		v-28.5h-1.2v28.3c0,0,0,0-0.1,0c-1.2,0-6.3,0-7.7,0c-2.4,0-5,1.2-5,5.2c0,16.2,0.1,46.4,0.1,46.4h8.7v-0.5
		c-1.2-1.4-1.3-2.2-1.3-3.6c0-0.3,0-11.7,0-23.2c0-0.2,0.1-0.5,0.4-0.5c0.2,0,1.6,0,2.4,0c0.3,0,0.5-0.1,0.7-0.5
		c0.1-0.4,2.1-5.3,2.2-5.5c0.2-0.4,0.1-0.5-0.4-0.5c-1.3,0-4.6,0-4.8,0c-0.3,0-0.5-0.1-0.5-0.6c0-3.5,0-6.9,0-9.7
		c0-0.4,0.2-0.5,0.5-0.5s1.4,0,1.7,0c0.3,0,0.5,0.1,0.5,0.5c0,1.2,0,7.5,0,7.5L297.2,420.2L297.2,420.2z M262.1,400.1
		c0-1.9,0-22.6,0-24.9c0-2.9-1.7-4.8-5.5-4.8c-0.8,0-3.7,0-4.8,0c0-9.2,0-16.9,0-16.9h-28.6v10.9h0.3c0.5-2.3,2.7-4.3,4.7-4.3
		c0.8,0,2.8,0.1,2.8,0.1s0,38,0,39.9c0,2.4-1.9,3.7-2.7,3.9v0.3h12v-0.3c-0.7-0.3-1.9-1.3-1.9-3.9c0-3.5,0-40,0-40s1.8,0,2.7,0
		c1.2,0,3.1,1,3.1,3.1c0,0.9,0,41,0,41h8.8v-0.3c-1.2-1.4-1.3-2.4-1.3-3.7c0-0.7,0-11.6,0-22.7v0.1c0-0.5,0.2-0.7,0.5-0.7
		c0.3,0,1.3,0,1.6,0c0.4,0,0.6,0.3,0.6,0.7c0,0.3,0,26.6,0,26.6h9v-0.3C263,403.5,262.1,402,262.1,400.1L262.1,400.1z M351.5,394.5
		c-0.2-0.5-0.4-1.4-0.3-2.9c2.2-1.2,4-1.2,4.9,0.5c-1.6,1.2-3.1,2.3-3.9,2.7C352,395,351.6,395,351.5,394.5L351.5,394.5z
		 M357.9,390.6c-0.4-0.7-1.4-1.5-2.8-1.5c-1.2,0-2.6,0.5-3.6,1c0.8-1.6,1.7-3.6,3.9-6.5l7.9,1.2
		C361.7,387.4,359.5,389.3,357.9,390.6L357.9,390.6z"/>
</g>
</svg>
